<?xml version="1.0" encoding="UTF-8" standalone="no"?>
<svg
   xmlns:dc="http://purl.org/dc/elements/1.1/"
   xmlns:cc="http://creativecommons.org/ns#"
   xmlns:rdf="http://www.w3.org/1999/02/22-rdf-syntax-ns#"
   xmlns:svg="http://www.w3.org/2000/svg"
   xmlns="http://www.w3.org/2000/svg"
   xmlns:sodipodi="http://sodipodi.sourceforge.net/DTD/sodipodi-0.dtd"
   xmlns:inkscape="http://www.inkscape.org/namespaces/inkscape"
   id="Layer_1"
   data-name="Layer 1"
   viewBox="0 0 540 144"
   version="1.1"
   sodipodi:docname="rse-ops-docker.svg"
   inkscape:version="0.92.5 (2060ec1f9f, 2020-04-08)">
  <metadata
     id="metadata75">
    <rdf:RDF>
      <cc:Work
         rdf:about="">
        <dc:format>image/svg+xml</dc:format>
        <dc:type
           rdf:resource="http://purl.org/dc/dcmitype/StillImage" />
        <dc:title />
      </cc:Work>
    </rdf:RDF>
  </metadata>
  <sodipodi:namedview
     pagecolor="#ffffff"
     bordercolor="#666666"
     borderopacity="1"
     objecttolerance="10"
     gridtolerance="10"
     guidetolerance="10"
     inkscape:pageopacity="0"
     inkscape:pageshadow="2"
     inkscape:window-width="1214"
     inkscape:window-height="491"
     id="namedview73"
     showgrid="false"
     inkscape:zoom="1.8175263"
     inkscape:cx="170.68919"
     inkscape:cy="69.799207"
     inkscape:window-x="170"
     inkscape:window-y="483"
     inkscape:window-maximized="0"
     inkscape:current-layer="g70" />
  <defs
     id="defs22">
    <style
       id="style2">
      .cls-1 {
        fill: none;
      }

      .cls-2, .cls-5 {
        fill: #081b2f;
      }

      .cls-3 {
        opacity: 0.6;
        fill: url(#linear-gradient);
      }

      .cls-4 {
        fill: #566271;
      }

      .cls-4, .cls-5 {
        fill-rule: evenodd;
      }

      .cls-6 {
        isolation: isolate;
      }

      .cls-7 {
        fill: #ac3014;
      }

      .cls-8 {
        fill: #8c2304;
      }

      .cls-9 {
        fill: #d53d1f;
      }

      .cls-10 {
        clip-path: url(#clip-path);
      }

      .cls-11 {
        fill: #952609;
      }

      .cls-12 {
        fill: #9e2a0e;
      }

      .cls-13 {
        fill: #a82e12;
      }
    </style>
    <linearGradient
       id="linear-gradient"
       x1="129.3"
       y1="61.07"
       x2="120.14"
       y2="84.93"
       gradientUnits="userSpaceOnUse">
      <stop
         offset="0"
         stop-color="#fff"
         stop-opacity="0.3"
         id="stop4" />
      <stop
         offset="0.05"
         stop-color="#e1e1e1"
         stop-opacity="0.37"
         id="stop6" />
      <stop
         offset="0.24"
         stop-color="#7f7f7f"
         stop-opacity="0.6"
         id="stop8" />
      <stop
         offset="0.43"
         stop-color="#393939"
         stop-opacity="0.77"
         id="stop10" />
      <stop
         offset="0.61"
         stop-color="#0e0e0e"
         stop-opacity="0.87"
         id="stop12" />
      <stop
         offset="0.79"
         stop-opacity="0.9"
         id="stop14" />
      <stop
         offset="0.86"
         id="stop16" />
    </linearGradient>
    <clipPath
       id="clip-path">
      <path
         class="cls-1"
         d="M91.75,45.54,84,41.25c-.11-6.8,5.57-12.95,12.64-13.7l7.79,4.29C97.33,32.59,91.65,38.74,91.75,45.54Z"
         id="path19" />
    </clipPath>
  </defs>
  <g
     id="g70">
    <circle
       style="fill:#ffffff;fill-opacity:1;stroke:#005dab;stroke-width:7.55905533;stroke-linecap:butt;stroke-linejoin:round;stroke-miterlimit:4;stroke-dasharray:none;stroke-dashoffset:0;stroke-opacity:1"
       id="path2098"
       cx="81.429352"
       cy="73.024406"
       r="50.618248"
       inkscape:export-xdpi="220.60001"
       inkscape:export-ydpi="220.60001"
       inkscape:export-filename="/home/vanessa/Desktop/Code/radiuss/logo/docker/radius-docker.png" />
    <g
       transform="matrix(0.17898323,0,0,0.17898323,36.435856,27.397791)"
       id="g955"
       style="fill:#741755;fill-opacity:1"
       inkscape:export-xdpi="220.60001"
       inkscape:export-ydpi="220.60001">
      <path
         inkscape:connector-curvature="0"
         d="M 277,242.1 H 230.5 V 200.3 H 277 Z m 0,-143.6 h -46.5 v 42.7 H 277 Z m 55,101.8 H 285.5 V 242 H 332 Z M 222.1,149.6 h -46.5 v 42.3 h 46.5 z m 54.9,0 h -46.5 v 42.3 H 277 Z m 194.6,70.3 c -10.1,-6.8 -33.5,-9.3 -51.4,-5.9 -2.3,-16.9 -11.7,-31.6 -28.9,-44.8 l -9.8,-6.5 -6.5,9.8 c -12.9,19.5 -16.5,51.7 -2.6,73 -6.1,3.3 -18.1,7.8 -34,7.5 H 32.7 c -6.1,35.7 4.1,82.1 30.9,114 26.1,30.9 65.2,46.5 116.3,46.5 110.7,0 192.6,-51 230.9,-143.6 15,0.3 47.5,0.1 64.2,-31.8 1.1,-1.8 4.6,-9.3 6,-12 z M 112.3,200.3 H 65.9 V 242 h 46.5 z m 54.9,0 H 120.7 V 242 h 46.5 z m 54.9,0 H 175.6 V 242 h 46.5 z m -54.9,-50.7 h -46.5 v 42.3 h 46.5 z"
         id="path953"
         style="fill:#741755;fill-opacity:1" />
    </g>
  </g>
</svg>
