<?xml version="1.0" encoding="UTF-8" standalone="no"?>
<svg
   xmlns:dc="http://purl.org/dc/elements/1.1/"
   xmlns:cc="http://creativecommons.org/ns#"
   xmlns:rdf="http://www.w3.org/1999/02/22-rdf-syntax-ns#"
   xmlns:svg="http://www.w3.org/2000/svg"
   xmlns="http://www.w3.org/2000/svg"
   xmlns:sodipodi="http://sodipodi.sourceforge.net/DTD/sodipodi-0.dtd"
   xmlns:inkscape="http://www.inkscape.org/namespaces/inkscape"
   id="Layer_1"
   data-name="Layer 1"
   viewBox="0 0 540 144"
   version="1.1"
   sodipodi:docname="rse-radiuss-ci.svg"
   inkscape:version="0.92.5 (2060ec1f9f, 2020-04-08)">
  <metadata
     id="metadata75">
    <rdf:RDF>
      <cc:Work
         rdf:about="">
        <dc:format>image/svg+xml</dc:format>
        <dc:type
           rdf:resource="http://purl.org/dc/dcmitype/StillImage" />
        <dc:title />
      </cc:Work>
    </rdf:RDF>
  </metadata>
  <sodipodi:namedview
     pagecolor="#ffffff"
     bordercolor="#666666"
     borderopacity="1"
     objecttolerance="10"
     gridtolerance="10"
     guidetolerance="10"
     inkscape:pageopacity="0"
     inkscape:pageshadow="2"
     inkscape:window-width="1848"
     inkscape:window-height="1016"
     id="namedview73"
     showgrid="false"
     inkscape:zoom="1.8175263"
     inkscape:cx="71.928583"
     inkscape:cy="67.598414"
     inkscape:window-x="72"
     inkscape:window-y="1107"
     inkscape:window-maximized="1"
     inkscape:current-layer="g70" />
  <defs
     id="defs22">
    <style
       id="style2">
      .cls-1 {
        fill: none;
      }

      .cls-2, .cls-5 {
        fill: #081b2f;
      }

      .cls-3 {
        opacity: 0.6;
        fill: url(#linear-gradient);
      }

      .cls-4 {
        fill: #566271;
      }

      .cls-4, .cls-5 {
        fill-rule: evenodd;
      }

      .cls-6 {
        isolation: isolate;
      }

      .cls-7 {
        fill: #ac3014;
      }

      .cls-8 {
        fill: #8c2304;
      }

      .cls-9 {
        fill: #d53d1f;
      }

      .cls-10 {
        clip-path: url(#clip-path);
      }

      .cls-11 {
        fill: #952609;
      }

      .cls-12 {
        fill: #9e2a0e;
      }

      .cls-13 {
        fill: #a82e12;
      }
    </style>
    <linearGradient
       id="linear-gradient"
       x1="129.3"
       y1="61.07"
       x2="120.14"
       y2="84.93"
       gradientUnits="userSpaceOnUse">
      <stop
         offset="0"
         stop-color="#fff"
         stop-opacity="0.3"
         id="stop4" />
      <stop
         offset="0.05"
         stop-color="#e1e1e1"
         stop-opacity="0.37"
         id="stop6" />
      <stop
         offset="0.24"
         stop-color="#7f7f7f"
         stop-opacity="0.6"
         id="stop8" />
      <stop
         offset="0.43"
         stop-color="#393939"
         stop-opacity="0.77"
         id="stop10" />
      <stop
         offset="0.61"
         stop-color="#0e0e0e"
         stop-opacity="0.87"
         id="stop12" />
      <stop
         offset="0.79"
         stop-opacity="0.9"
         id="stop14" />
      <stop
         offset="0.86"
         id="stop16" />
    </linearGradient>
    <clipPath
       id="clip-path">
      <path
         class="cls-1"
         d="M91.75,45.54,84,41.25c-.11-6.8,5.57-12.95,12.64-13.7l7.79,4.29C97.33,32.59,91.65,38.74,91.75,45.54Z"
         id="path19" />
    </clipPath>
  </defs>
  <g
     id="g70">
    <g
       id="g38"
       inkscape:export-xdpi="115.52917"
       inkscape:export-ydpi="115.52917">
      <path
         class="cls-2"
         d="M222.71,49.48l0,8.46L197.34,58a1.74,1.74,0,0,0-1.72,1.73L195.69,95h-8.46l0-10.18-.05-25.07a10.17,10.17,0,0,1,10.17-10.21Z"
         id="path24"
         style="fill:#d53d1f;fill-opacity:1" />
      <path
         class="cls-2"
         d="M276.92,59.56,277,94.81l-36,.08a10.17,10.17,0,0,1-10.2-10.17l0-16.77,37.77-.07,0-8.31a1.74,1.74,0,0,0-1.73-1.72l-36,.07V49.46l36-.07A10.17,10.17,0,0,1,276.92,59.56Zm-8.43,16.78-29.3.06,0,8.3a1.73,1.73,0,0,0,1.72,1.72l27.58,0Z"
         id="path26" />
      <path
         class="cls-2"
         d="M331.82,34.38l.12,60.33-36,.07a10.18,10.18,0,0,1-10.21-10.17l-.05-25.07a10.18,10.18,0,0,1,10.17-10.21l27.58,0,0-14.89ZM321.74,86.26a1.73,1.73,0,0,0,1.72-1.72l0-25.07a1.75,1.75,0,0,0-1.73-1.73l-25.85.06a1.73,1.73,0,0,0-1.72,1.72l.05,25.08a1.73,1.73,0,0,0,1.72,1.72Z"
         id="path28" />
      <path
         class="cls-2"
         d="M350.25,34.34l0,8.46-8.46,0,0-8.46Zm-8.43,14.9h8.46l.09,45.44-8.46,0Z"
         id="path30" />
      <path
         class="cls-2"
         d="M406.13,49.12l.07,35.25A10.16,10.16,0,0,1,396,94.58l-25.86,0A10.16,10.16,0,0,1,360,84.46l-.07-35.25,8.46,0,.07,35.26a1.74,1.74,0,0,0,1.73,1.72l25.85,0a1.75,1.75,0,0,0,1.72-1.73l-.07-35.26Z"
         id="path32" />
      <path
         class="cls-2"
         d="M461.88,60.91l-8.47,0V59.21a1.73,1.73,0,0,0-1.73-1.72l-25.85,0a1.73,1.73,0,0,0-1.72,1.72v6.59a1.74,1.74,0,0,0,1.73,1.72l25.85-.06a10.17,10.17,0,0,1,10.21,10.17v6.58a10.17,10.17,0,0,1-10.16,10.21l-25.86,0a10.17,10.17,0,0,1-10.2-10.17V82.63l8.46,0v1.73a1.74,1.74,0,0,0,1.72,1.72l25.86,0a1.75,1.75,0,0,0,1.72-1.73V77.7A1.74,1.74,0,0,0,451.72,76l-25.86,0a10.17,10.17,0,0,1-10.2-10.17V59.28a10.16,10.16,0,0,1,10.16-10.2L451.67,49a10.17,10.17,0,0,1,10.2,10.17Z"
         id="path34" />
      <path
         class="cls-2"
         d="M517.45,60.8l-8.46,0V59.1a1.74,1.74,0,0,0-1.73-1.72l-25.86,0a1.73,1.73,0,0,0-1.72,1.72l0,6.59a1.73,1.73,0,0,0,1.72,1.72l25.86-.06a10.17,10.17,0,0,1,10.2,10.17l0,6.58a10.17,10.17,0,0,1-10.17,10.21l-25.85,0a10.17,10.17,0,0,1-10.21-10.17V82.52l8.46,0v1.73A1.74,1.74,0,0,0,481.46,86l25.85,0A1.74,1.74,0,0,0,509,84.17V77.59a1.74,1.74,0,0,0-1.73-1.72l-25.85,0a10.18,10.18,0,0,1-10.21-10.17V59.17A10.16,10.16,0,0,1,481.39,49l25.85-.06a10.17,10.17,0,0,1,10.21,10.17Z"
         id="path36" />
    </g>
    <circle
       style="fill:#ffffff;fill-opacity:1;stroke:#12202d;stroke-width:7.55905533;stroke-linecap:butt;stroke-linejoin:round;stroke-miterlimit:4;stroke-dasharray:none;stroke-dashoffset:0;stroke-opacity:1"
       id="path2098"
       cx="81.429352"
       cy="73.024406"
       r="50.618248"
       inkscape:export-xdpi="220.60001"
       inkscape:export-ydpi="220.60001"
       inkscape:export-filename="/home/vanessa/Desktop/Code/radiuss/logo/docker/radius-docker.png" />
    <g
       id="g846"
       transform="translate(86.931341,-13.989891)"
       style="fill:#d53d1f;fill-opacity:1">
      <path
         style="fill:#d53d1f;fill-opacity:1;stroke-width:0.15535954"
         d="m -8.6091693,126.4594 c -6.6148207,-0.78096 -11.0113337,-2.09435 -15.8639267,-4.7391 -11.018191,-6.00511 -18.327101,-16.43889 -20.361295,-29.066603 -0.461009,-2.861816 -0.499257,-8.790134 -0.07449,-11.544946 1.560785,-10.122306 6.624332,-18.972084 14.471693,-25.292795 4.804941,-3.870173 11.011022,-6.804952 16.77883,-7.934501 3.642584,-0.713352 4.3957907,-0.785929 8.1563747,-0.785929 3.757355,0 4.50363997,0.07178 8.156376,0.784462 5.854869,1.142343 12.3253853,4.260447 17.1465453,8.26282 10.88272,9.034478 16.21831,23.290441 13.90853,37.161667 -0.3408,2.04669 -1.17899,5.266449 -1.846,7.091125 -0.82475,2.25617 -2.84838,6.25504 -4.17581,8.25177 -3.88211,5.83951 -9.06856,10.43197 -15.400974,13.63718 -3.8085783,1.92774 -6.9568303,2.95 -11.49660533,3.73304 -1.88087897,0.32443 -2.95971297,0.412 -5.59294397,0.45398 -1.794402,0.0286 -3.507241,0.0231 -3.806308,-0.0122 z M 3.1515227,93.056893 C 11.935565,82.923335 19.146512,74.526631 19.175862,74.397549 c 0.0717,-0.315206 -3.13016,-3.510576 -3.44746,-3.440518 -0.1329,0.02934 -6.5783173,5.226823 -14.3231513,11.549956 -7.744835,6.323133 -14.1700277,11.517263 -14.2782077,11.54251 -0.108179,0.02525 -2.205473,-2.509056 -4.660654,-5.631783 -2.455181,-3.122728 -4.519742,-5.677687 -4.587914,-5.677687 -0.268357,0 -7.173894,7.297487 -7.12433,7.528699 0.06697,0.312416 16.12183,21.212814 16.294842,21.212814 0.07235,0 7.3184937,-8.29109 16.1025357,-18.424647 z"
         id="path848"
         inkscape:connector-curvature="0" />
    </g>
  </g>
</svg>
