<?xml version="1.0" encoding="UTF-8" standalone="no"?>
<svg
   xmlns:dc="http://purl.org/dc/elements/1.1/"
   xmlns:cc="http://creativecommons.org/ns#"
   xmlns:rdf="http://www.w3.org/1999/02/22-rdf-syntax-ns#"
   xmlns:svg="http://www.w3.org/2000/svg"
   xmlns="http://www.w3.org/2000/svg"
   xmlns:sodipodi="http://sodipodi.sourceforge.net/DTD/sodipodi-0.dtd"
   xmlns:inkscape="http://www.inkscape.org/namespaces/inkscape"
   id="Layer_1"
   data-name="Layer 1"
   viewBox="0 0 540 144"
   version="1.1"
   sodipodi:docname="radiuss_logo-color-inline.svg"
   inkscape:version="0.92.5 (2060ec1f9f, 2020-04-08)">
  <metadata
     id="metadata75">
    <rdf:RDF>
      <cc:Work
         rdf:about="">
        <dc:format>image/svg+xml</dc:format>
        <dc:type
           rdf:resource="http://purl.org/dc/dcmitype/StillImage" />
        <dc:title></dc:title>
      </cc:Work>
    </rdf:RDF>
  </metadata>
  <sodipodi:namedview
     pagecolor="#ffffff"
     bordercolor="#666666"
     borderopacity="1"
     objecttolerance="10"
     gridtolerance="10"
     guidetolerance="10"
     inkscape:pageopacity="0"
     inkscape:pageshadow="2"
     inkscape:window-width="1848"
     inkscape:window-height="1016"
     id="namedview73"
     showgrid="false"
     inkscape:zoom="1.8175263"
     inkscape:cx="270"
     inkscape:cy="72"
     inkscape:window-x="72"
     inkscape:window-y="1107"
     inkscape:window-maximized="1"
     inkscape:current-layer="g70" />
  <defs
     id="defs22">
    <style
       id="style2">
      .cls-1 {
        fill: none;
      }

      .cls-2, .cls-5 {
        fill: #081b2f;
      }

      .cls-3 {
        opacity: 0.6;
        fill: url(#linear-gradient);
      }

      .cls-4 {
        fill: #566271;
      }

      .cls-4, .cls-5 {
        fill-rule: evenodd;
      }

      .cls-6 {
        isolation: isolate;
      }

      .cls-7 {
        fill: #ac3014;
      }

      .cls-8 {
        fill: #8c2304;
      }

      .cls-9 {
        fill: #d53d1f;
      }

      .cls-10 {
        clip-path: url(#clip-path);
      }

      .cls-11 {
        fill: #952609;
      }

      .cls-12 {
        fill: #9e2a0e;
      }

      .cls-13 {
        fill: #a82e12;
      }
    </style>
    <linearGradient
       id="linear-gradient"
       x1="129.3"
       y1="61.07"
       x2="120.14"
       y2="84.93"
       gradientUnits="userSpaceOnUse">
      <stop
         offset="0"
         stop-color="#fff"
         stop-opacity="0.3"
         id="stop4" />
      <stop
         offset="0.05"
         stop-color="#e1e1e1"
         stop-opacity="0.37"
         id="stop6" />
      <stop
         offset="0.24"
         stop-color="#7f7f7f"
         stop-opacity="0.6"
         id="stop8" />
      <stop
         offset="0.43"
         stop-color="#393939"
         stop-opacity="0.77"
         id="stop10" />
      <stop
         offset="0.61"
         stop-color="#0e0e0e"
         stop-opacity="0.87"
         id="stop12" />
      <stop
         offset="0.79"
         stop-opacity="0.9"
         id="stop14" />
      <stop
         offset="0.86"
         id="stop16" />
    </linearGradient>
    <clipPath
       id="clip-path">
      <path
         class="cls-1"
         d="M91.75,45.54,84,41.25c-.11-6.8,5.57-12.95,12.64-13.7l7.79,4.29C97.33,32.59,91.65,38.74,91.75,45.54Z"
         id="path19" />
    </clipPath>
  </defs>
  <g
     id="g70">
    <g
       id="g38">
      <path
         class="cls-2"
         d="M222.71,49.48l0,8.46L197.34,58a1.74,1.74,0,0,0-1.72,1.73L195.69,95h-8.46l0-10.18-.05-25.07a10.17,10.17,0,0,1,10.17-10.21Z"
         id="path24"
         style="fill:#d53d1f;fill-opacity:1" />
      <path
         class="cls-2"
         d="M276.92,59.56,277,94.81l-36,.08a10.17,10.17,0,0,1-10.2-10.17l0-16.77,37.77-.07,0-8.31a1.74,1.74,0,0,0-1.73-1.72l-36,.07V49.46l36-.07A10.17,10.17,0,0,1,276.92,59.56Zm-8.43,16.78-29.3.06,0,8.3a1.73,1.73,0,0,0,1.72,1.72l27.58,0Z"
         id="path26" />
      <path
         class="cls-2"
         d="M331.82,34.38l.12,60.33-36,.07a10.18,10.18,0,0,1-10.21-10.17l-.05-25.07a10.18,10.18,0,0,1,10.17-10.21l27.58,0,0-14.89ZM321.74,86.26a1.73,1.73,0,0,0,1.72-1.72l0-25.07a1.75,1.75,0,0,0-1.73-1.73l-25.85.06a1.73,1.73,0,0,0-1.72,1.72l.05,25.08a1.73,1.73,0,0,0,1.72,1.72Z"
         id="path28" />
      <path
         class="cls-2"
         d="M350.25,34.34l0,8.46-8.46,0,0-8.46Zm-8.43,14.9h8.46l.09,45.44-8.46,0Z"
         id="path30" />
      <path
         class="cls-2"
         d="M406.13,49.12l.07,35.25A10.16,10.16,0,0,1,396,94.58l-25.86,0A10.16,10.16,0,0,1,360,84.46l-.07-35.25,8.46,0,.07,35.26a1.74,1.74,0,0,0,1.73,1.72l25.85,0a1.75,1.75,0,0,0,1.72-1.73l-.07-35.26Z"
         id="path32" />
      <path
         class="cls-2"
         d="M461.88,60.91l-8.47,0V59.21a1.73,1.73,0,0,0-1.73-1.72l-25.85,0a1.73,1.73,0,0,0-1.72,1.72v6.59a1.74,1.74,0,0,0,1.73,1.72l25.85-.06a10.17,10.17,0,0,1,10.21,10.17v6.58a10.17,10.17,0,0,1-10.16,10.21l-25.86,0a10.17,10.17,0,0,1-10.2-10.17V82.63l8.46,0v1.73a1.74,1.74,0,0,0,1.72,1.72l25.86,0a1.75,1.75,0,0,0,1.72-1.73V77.7A1.74,1.74,0,0,0,451.72,76l-25.86,0a10.17,10.17,0,0,1-10.2-10.17V59.28a10.16,10.16,0,0,1,10.16-10.2L451.67,49a10.17,10.17,0,0,1,10.2,10.17Z"
         id="path34" />
      <path
         class="cls-2"
         d="M517.45,60.8l-8.46,0V59.1a1.74,1.74,0,0,0-1.73-1.72l-25.86,0a1.73,1.73,0,0,0-1.72,1.72l0,6.59a1.73,1.73,0,0,0,1.72,1.72l25.86-.06a10.17,10.17,0,0,1,10.2,10.17l0,6.58a10.17,10.17,0,0,1-10.17,10.21l-25.85,0a10.17,10.17,0,0,1-10.21-10.17V82.52l8.46,0v1.73A1.74,1.74,0,0,0,481.46,86l25.85,0A1.74,1.74,0,0,0,509,84.17V77.59a1.74,1.74,0,0,0-1.73-1.72l-25.85,0a10.18,10.18,0,0,1-10.21-10.17V59.17A10.16,10.16,0,0,1,481.39,49l25.85-.06a10.17,10.17,0,0,1,10.21,10.17Z"
         id="path36" />
    </g>
    <circle
       style="fill:#ffffff;fill-opacity:1;stroke:#12202d;stroke-width:7.55905533;stroke-linecap:butt;stroke-linejoin:round;stroke-miterlimit:4;stroke-dasharray:none;stroke-dashoffset:0;stroke-opacity:1"
       id="path2098"
       cx="81.429352"
       cy="73.024406"
       r="50.618248" />
    <path
       inkscape:connector-curvature="0"
       class="cls-2"
       d="m 103.59598,53.565604 v 8.46 l -25.369997,0.06 a 1.74,1.74 0 0 0 -1.72,1.73 l 0.07,35.269996 h -8.46 V 88.905609 l -0.05,-25.070005 a 10.17,10.17 0 0 1 10.17,-10.21 z"
       id="path24-9-1"
       style="fill:#d53d1f;fill-opacity:1" />
  </g>
</svg>
